<?xml version="1.0" standalone="no"?>
<!DOCTYPE svg PUBLIC "-//W3C//DTD SVG 20010904//EN"
 "http://www.w3.org/TR/2001/REC-SVG-20010904/DTD/svg10.dtd">
<svg version="1.0" xmlns="http://www.w3.org/2000/svg"
 width="500.000000pt" height="500.000000pt" viewBox="0 0 500.000000 500.000000"
 preserveAspectRatio="xMidYMid meet">
<metadata>
Created by potrace 1.14, written by Peter Selinger 2001-2017
</metadata>
<g transform="translate(0.000000,500.000000) scale(0.100000,-0.100000)"
fill="#000000" stroke="none">
<path d="M1629 4239 c-20 -4 -71 -22 -113 -39 -76 -30 -79 -30 -261 -30 -209
0 -203 3 -190 -88 18 -133 78 -237 170 -298 50 -33 55 -40 55 -73 1 -88 48
-206 108 -267 19 -19 31 -38 28 -41 -4 -4 -37 -7 -74 -8 -37 -1 -70 -3 -74 -4
-14 -2 -9 -278 5 -288 6 -5 55 -9 107 -8 l95 0 5 -80 c3 -44 2 -93 -2 -110
-13 -46 -12 -204 1 -260 20 -83 87 -207 149 -273 53 -57 174 -154 202 -164 10
-3 8 -18 -8 -59 -29 -79 -51 -194 -53 -278 -1 -68 -3 -73 -30 -86 -39 -21 -48
-19 -55 13 -16 66 -70 133 -135 168 -41 22 -162 25 -196 6 -22 -12 -22 -14 -8
-47 l14 -35 -48 0 c-93 0 -161 -80 -161 -188 1 -61 29 -122 81 -173 57 -56
110 -79 185 -79 l61 0 0 -77 c1 -92 21 -178 63 -261 17 -34 30 -65 30 -69 0
-5 -95 -8 -211 -7 -186 1 -213 -1 -232 -16 -19 -15 -20 -21 -9 -44 11 -26 13
-26 122 -26 l110 0 -6 -30 c-13 -64 -104 -60 1242 -60 1179 0 1224 1 1233 18
7 14 6 25 -4 39 -18 26 -11 33 37 33 33 0 40 4 49 27 8 21 6 30 -6 42 -13 13
-49 16 -228 18 -117 0 -217 2 -223 2 -6 1 5 33 24 72 124 261 41 553 -190 669
-17 8 -28 22 -29 34 -1 26 -7 88 -13 141 -6 55 -33 175 -45 207 -9 25 -7 28
37 54 165 96 281 233 337 399 18 53 27 214 15 269 -3 17 -4 71 -1 121 l6 90
104 0 c95 0 104 2 110 20 10 28 7 262 -3 272 -4 4 -38 9 -74 10 -37 0 -73 2
-81 2 -8 1 3 19 27 45 46 50 74 101 92 166 17 62 18 70 19 110 1 29 7 39 34
53 47 26 112 91 141 139 34 60 58 148 54 205 l-3 48 -200 5 c-199 5 -200 6
-280 39 -148 63 -291 53 -424 -29 -51 -32 -111 -93 -143 -147 -11 -18 -22 -33
-25 -33 -3 0 -47 15 -97 32 l-91 33 -205 0 c-182 0 -214 -3 -283 -23 -44 -12
-91 -29 -107 -37 -27 -14 -28 -13 -58 33 -65 99 -145 162 -245 194 -62 19
-165 22 -228 7z"/>
</g>
</svg>
